<svg xmlns="http://www.w3.org/2000/svg" viewBox="0 0 32 32">
  <defs>
    <linearGradient id="bg" x1="4" y1="2" x2="29" y2="30" gradientUnits="userSpaceOnUse">
      <stop offset="0" stop-color="#0f172a"/>
      <stop offset=".5" stop-color="#2563eb"/>
      <stop offset="1" stop-color="#06b6d4"/>
    </linearGradient>
    <radialGradient id="glow" cx="0" cy="0" r="1" gradientTransform="matrix(20 0 0 20 23 7)" gradientUnits="userSpaceOnUse">
      <stop offset="0" stop-color="#fef3c7" stop-opacity=".72"/>
      <stop offset=".48" stop-color="#60a5fa" stop-opacity=".26"/>
      <stop offset="1" stop-color="#0f172a" stop-opacity="0"/>
    </radialGradient>
    <linearGradient id="paper" x1="8" y1="6" x2="24" y2="27" gradientUnits="userSpaceOnUse">
      <stop offset="0" stop-color="#fff"/>
      <stop offset="1" stop-color="#dff7ff"/>
    </linearGradient>
    <linearGradient id="check" x1="10" y1="20" x2="23" y2="11" gradientUnits="userSpaceOnUse">
      <stop offset="0" stop-color="#14b8a6"/>
      <stop offset=".55" stop-color="#22c55e"/>
      <stop offset="1" stop-color="#facc15"/>
    </linearGradient>
    <filter id="shadow" x="-20%" y="-20%" width="140%" height="150%">
      <feDropShadow dx="0" dy="2" stdDeviation="1.6" flood-color="#020617" flood-opacity=".28"/>
    </filter>
  </defs>
  <rect x="1" y="1" width="30" height="30" rx="8.5" fill="url(#bg)"/>
  <rect x="1" y="1" width="30" height="30" rx="8.5" fill="url(#glow)"/>
  <path d="M5 10.5h6.6M4.2 15.5h4.4M22 7.2h4.4" stroke="#bfdbfe" stroke-width="1.55" stroke-linecap="round" opacity=".72"/>
  <g filter="url(#shadow)" transform="rotate(-5 16 16)">
    <rect x="8.2" y="6.6" width="16.7" height="20" rx="4" fill="url(#paper)"/>
    <rect x="12.3" y="4.4" width="8.4" height="5.5" rx="2.4" fill="#facc15"/>
    <rect x="13.5" y="5.6" width="6" height="2.1" rx="1.05" fill="#fff7cc" opacity=".7"/>
    <path d="M12.1 13h7.5M12.1 16.2h4.1M12.1 22.7h7.2" stroke="#94a3b8" stroke-width="1.35" stroke-linecap="round" opacity=".72"/>
  </g>
  <path d="M10.6 18.1l4.1 4.1 8-10.3" fill="none" stroke="url(#check)" stroke-width="3.15" stroke-linecap="round" stroke-linejoin="round"/>
  <path d="M21.6 18.8l4.3-.7-2.2 3.7 3.7-.7" fill="none" stroke="#fef3c7" stroke-width="1.7" stroke-linecap="round" stroke-linejoin="round" opacity=".95"/>
</svg>
